<?xml version="1.0" encoding="UTF-8"?>
<svg version="1.1" xmlns="http://www.w3.org/2000/svg" width="579" height="624">
<path d="M0 0 C191.07 0 382.14 0 579 0 C579 205.92 579 411.84 579 624 C387.93 624 196.86 624 0 624 C0 418.08 0 212.16 0 0 Z " fill="#0C7D4A" transform="translate(0,0)"/>
<path d="M0 0 C1.21115479 -0.01489471 1.21115479 -0.01489471 2.44677734 -0.03009033 C59.40970749 -0.58488866 105.39092757 16.30898954 146.48046875 55.98828125 C183.53663721 93.62254906 200.19588342 147.37258066 199.98046875 199.17578125 C199.97932068 200.77845856 199.97932068 200.77845856 199.97814941 202.41351318 C199.93319647 219.86339797 198.59607256 236.23124474 194.48046875 253.23828125 C194.15405533 254.70683314 193.82843024 256.17556067 193.50390625 257.64453125 C188.3872723 278.82294654 179.44096637 301.6270517 166.52734375 319.25 C165.31988874 321.16049516 165.31988874 321.16049516 165.50390625 323.25 C166.90060479 326.09367823 168.84924117 327.43923685 171.35546875 329.36328125 C175.3716101 332.52845725 179.22654236 335.76562888 182.98046875 339.23828125 C186.63421524 342.60494766 190.35966294 345.81115745 194.23046875 348.92578125 C202.6126172 355.74596463 209.96368815 362.68793945 213.48046875 373.23828125 C214.34327009 384.90731578 213.40986852 393.84457168 205.73046875 403.05078125 C198.87396368 410.23680412 190.90610199 414.72281836 180.92578125 415.5234375 C159.43294072 416.02075675 146.03640252 404.5487686 130.48046875 391.23828125 C129.16281402 390.1171245 127.84510774 388.99602833 126.52734375 387.875 C123.70861333 385.47070269 120.89974298 383.05534522 118.09667969 380.6328125 C115.2311654 378.1603325 112.35542576 375.69976854 109.48046875 373.23828125 C105.80630124 374.65967452 102.27855532 376.2785815 98.73046875 377.98828125 C90.84320373 381.64990599 82.72743784 384.50085104 74.48046875 387.23828125 C73.58714844 387.53605469 72.69382812 387.83382813 71.7734375 388.140625 C66.71318335 389.73542401 61.56664891 391.0253234 56.41796875 392.30078125 C55.4734082 392.54465576 55.4734082 392.54465576 54.50976562 392.79345703 C40.62486798 396.12244591 26.37774999 396.61786227 12.16796875 396.55078125 C11.36031067 396.54895844 10.55265259 396.54713562 9.72052002 396.54525757 C-2.57450161 396.49865907 -14.4917982 395.9957016 -26.51953125 393.23828125 C-27.29280762 393.0666748 -28.06608398 392.89506836 -28.86279297 392.71826172 C-74.8847827 382.25319232 -117.26657486 355.74616271 -142.66845703 315.4140625 C-156.98160014 292.27665926 -165.95149547 267.87057938 -171.51953125 241.23828125 C-171.73222656 240.27921875 -171.94492188 239.32015625 -172.1640625 238.33203125 C-174.09914459 229.31092911 -174.67802657 220.28688398 -174.7578125 211.078125 C-174.76765167 210.13866028 -174.77749084 209.19919556 -174.78762817 208.23126221 C-175.11340604 169.0886677 -175.11340604 169.0886677 -170.51953125 150.23828125 C-170.28347168 149.23216797 -170.04741211 148.22605469 -169.80419922 147.18945312 C-162.98765586 118.79817645 -151.23764218 90.89538859 -132.51953125 68.23828125 C-132.08737305 67.70219238 -131.65521484 67.16610352 -131.20996094 66.61376953 C-114.94999902 46.48648052 -95.4846858 31.09314067 -72.51953125 19.23828125 C-71.59624023 18.76116699 -71.59624023 18.76116699 -70.65429688 18.27441406 C-49.20409205 7.36695072 -24.11721156 0.24214842 0 0 Z " fill="#FDFEFE" transform="translate(270.51953125,105.76171875)"/>
<path d="M0 0 C0.82371094 0.59296875 1.64742187 1.1859375 2.49609375 1.796875 C15.74013676 11.79705724 24.71821241 24.34184767 32.1875 39 C32.50871826 39.6280957 32.82993652 40.25619141 33.16088867 40.90332031 C37.70696928 50.09183165 40.59609212 59.54929634 42.6875 69.5625 C42.89955078 70.52607422 43.11160156 71.48964844 43.33007812 72.48242188 C45.93593598 84.67323325 46.27411502 96.70009912 46.3125 109.125 C46.31545074 109.96504578 46.31840149 110.80509155 46.32144165 111.67059326 C46.33269792 125.79267867 45.12111738 139.19574368 42 153 C41.74992188 154.24265625 41.49984375 155.4853125 41.2421875 156.765625 C39.79514245 163.3854403 37.30516296 169.09512389 34 175 C29.96194134 173.63733356 27.45631882 171.8590849 24.375 168.9375 C11.46657628 157.0264582 0.30028284 147.32007626 -17.91015625 147.6875 C-27.42789627 148.65010329 -35.87402543 152.97743539 -41.94140625 160.36328125 C-49.14835768 170.27848165 -51.23739917 178.87829357 -50 191 C-46.65598368 203.0352278 -35.50085599 211.69455732 -26.52172852 219.71020508 C-24.97927488 221.10208232 -23.48485171 222.54683075 -22 224 C-22 224.66 -22 225.32 -22 226 C-52.90012921 233.17243875 -83.41068948 231.81958554 -111 215 C-114.18429242 212.84845107 -117.10003795 210.51796334 -120 208 C-120.80824219 207.33484375 -121.61648437 206.6696875 -122.44921875 205.984375 C-144.59469079 187.128506 -156.4856719 156.55592162 -159.28710938 128.08178711 C-162.4282873 87.97836851 -157.05623038 48.38199996 -130.91796875 16.45703125 C-99.27647558 -20.31551487 -39.88088019 -29.82960144 0 0 Z " fill="#0D7D4B" transform="translate(340,198)"/>
<path d="M0 0 C1.32 0.33 2.64 0.66 4 1 C1.91314435 3.08685565 0.37112462 3.86547581 -2.296875 5.06640625 C-3.16634766 5.46472656 -4.03582031 5.86304687 -4.93164062 6.2734375 C-5.86169922 6.69882813 -6.79175781 7.12421875 -7.75 7.5625 C-16.69587785 11.74735133 -24.95223577 16.28549419 -33 22 C-34.04929687 22.74507812 -35.09859375 23.49015625 -36.1796875 24.2578125 C-49.15486699 33.87023154 -61.40089549 44.9753327 -71 58 C-71.69867188 58.93328125 -72.39734375 59.8665625 -73.1171875 60.828125 C-86.82250988 79.84974681 -98.03790935 101.24148191 -104 124 C-104.66 123.67 -105.32 123.34 -106 123 C-105.68917128 121.24970238 -105.37626821 119.49977306 -105.0625 117.75 C-104.88847656 116.77546875 -104.71445313 115.8009375 -104.53515625 114.796875 C-103.33994989 108.55039507 -103.33994989 108.55039507 -101.6875 105.875 C-100.19412753 103.33073579 -99.17376612 100.99292677 -98.125 98.25 C-95.27709847 90.95157554 -91.3432961 84.3965871 -87.11328125 77.82421875 C-85.95758946 75.93050624 -84.96521652 73.99654376 -84 72 C-83.34 72 -82.68 72 -82 72 C-81.95875 71.154375 -81.9175 70.30875 -81.875 69.4375 C-80.85519529 65.43112434 -79.27235677 63.64133657 -76.47265625 60.7109375 C-74.90339185 59.03365559 -74.90339185 59.03365559 -73.94140625 56.8359375 C-73 55 -73 55 -70.875 54.25 C-70.25625 54.1675 -69.6375 54.085 -69 54 C-69 53.01 -69 52.02 -69 51 C-68.34 51 -67.68 51 -67 51 C-66.86053955 50.13036621 -66.86053955 50.13036621 -66.71826172 49.24316406 C-65.82880224 46.46534159 -64.5596725 45.17198308 -62.5078125 43.109375 C-61.45013672 42.04589844 -61.45013672 42.04589844 -60.37109375 40.9609375 C-59.62988281 40.23132813 -58.88867188 39.50171875 -58.125 38.75 C-57.02478516 37.63238281 -57.02478516 37.63238281 -55.90234375 36.4921875 C-55.19464844 35.78835937 -54.48695313 35.08453125 -53.7578125 34.359375 C-53.1095752 33.71452148 -52.46133789 33.06966797 -51.79345703 32.40527344 C-50 31 -50 31 -47 31 C-46.773125 30.4225 -46.54625 29.845 -46.3125 29.25 C-44.64018419 26.3831729 -42.72780269 24.86288964 -40 23 C-39.01 23 -38.02 23 -37 23 C-36.505 21.515 -36.505 21.515 -36 20 C-33.25 18 -33.25 18 -30 16 C-28.6696875 15.13375 -28.6696875 15.13375 -27.3125 14.25 C-25 13 -25 13 -22 13 C-22 12.34 -22 11.68 -22 11 C-20.73308493 10.32591692 -19.46129251 9.66099503 -18.1875 9 C-17.47980469 8.62875 -16.77210938 8.2575 -16.04296875 7.875 C-14 7 -14 7 -11 7 C-11 6.34 -11 5.68 -11 5 C-7.14243493 2.84694043 -4.44870215 1.60746746 0 2 C0 1.34 0 0.68 0 0 Z " fill="#277654" transform="translate(209,117)"/>
<path d="M0 0 C-0.1875 1.8125 -0.1875 1.8125 -1 4 C-3.17373894 5.69823355 -5.18584586 6.79815762 -7.875 7.46484375 C-16.18615506 9.55791037 -21.8898421 15.31268406 -28 21 C-28.77972168 21.72195557 -28.77972168 21.72195557 -29.57519531 22.45849609 C-34.76859661 27.31796468 -39.50666167 32.1199099 -43.01953125 38.359375 C-44.35118395 40.58763849 -46.14183239 42.20377131 -48 44 C-49.0409066 45.64142963 -50.04504326 47.30712215 -51 49 C-51.66 49.99 -52.32 50.98 -53 52 C-53.66 52 -54.32 52 -55 52 C-46.70310342 29.95510569 -28.15592657 12.02566798 -7.06933594 2.09033203 C-2.34686953 0 -2.34686953 0 0 0 Z " fill="#1E734F" transform="translate(249,187)"/>
<path d="M0 0 C0.66 0.33 1.32 0.66 2 1 C1.77280273 2.00015137 1.77280273 2.00015137 1.54101562 3.02050781 C-3.07870594 24.36362146 -3.42941648 45.11751019 -3.078125 66.90136719 C-3.06239944 68.01640121 -3.04667389 69.13143524 -3.0304718 70.28025818 C-2.99775853 72.39947355 -2.95501977 74.51856385 -2.90104675 76.63734436 C-2.88495865 77.5792009 -2.86887054 78.52105743 -2.85229492 79.49145508 C-2.83277267 80.31728592 -2.81325043 81.14311676 -2.7931366 81.99397278 C-3 84 -3 84 -5 86 C-6.57134995 75.21012366 -7.36659107 64.65943281 -7.3125 53.75 C-7.31167419 53.03720886 -7.31084839 52.32441772 -7.30999756 51.59002686 C-7.28065853 40.52797736 -6.54199509 29.79273833 -4.38037109 18.92578125 C-3.83596813 16.16952285 -3.39815446 13.39629723 -2.9375 10.625 C-2.25081969 6.96078156 -1.32273723 3.49580554 0 0 Z " fill="#2A7B58" transform="translate(100,249)"/>
<path d="M0 0 C0.75023437 -0.00773437 1.50046875 -0.01546875 2.2734375 -0.0234375 C6.11325255 -0.00982113 9.12402411 0.08268274 12.375 2.25 C12.045 2.91 11.715 3.57 11.375 4.25 C10.4675 4.085 9.56 3.92 8.625 3.75 C-2.96991452 2.18375147 -13.0004587 3.19069512 -22.875 9.875 C-29.36123652 15.13591052 -33.8311657 22.45536763 -36.625 30.25 C-36.88010732 33.01503415 -37.00329597 35.50236018 -36.9375 38.25 C-36.94072266 38.92289062 -36.94394531 39.59578125 -36.94726562 40.2890625 C-36.89746 44.97984661 -36.06639206 48.83968485 -34.625 53.25 C-35.615 52.92 -36.605 52.59 -37.625 52.25 C-37.75777344 51.27417969 -37.89054687 50.29835938 -38.02734375 49.29296875 C-38.20394531 48.02066406 -38.38054687 46.74835938 -38.5625 45.4375 C-38.73652344 44.17292969 -38.91054688 42.90835938 -39.08984375 41.60546875 C-39.52892455 38.26678297 -39.52892455 38.26678297 -40.625 35.25 C-40.35546875 32.5859375 -40.35546875 32.5859375 -39.8125 29.625 C-39.64105469 28.64273437 -39.46960938 27.66046875 -39.29296875 26.6484375 C-39.07253906 25.85695313 -38.85210937 25.06546875 -38.625 24.25 C-37.965 23.92 -37.305 23.59 -36.625 23.25 C-35.53501915 21.03473528 -34.64389061 18.76659446 -33.72265625 16.4765625 C-32.60457408 14.20856663 -31.58354159 12.83524254 -29.625 11.25 C-28.965 11.25 -28.305 11.25 -27.625 11.25 C-27.625 10.26 -27.625 9.27 -27.625 8.25 C-26.59375 7.816875 -25.5625 7.38375 -24.5 6.9375 C-22.13003869 5.92657083 -19.86210654 4.86076864 -17.5625 3.6875 C-11.56178346 0.75097914 -6.57900377 -0.06853129 0 0 Z " fill="#1F6D4B" transform="translate(326.625,342.75)"/>
<path d="M0 0 C1.1725131 0.95117134 2.33787015 1.91117009 3.5 2.875 C4.47453125 3.67550781 4.47453125 3.67550781 5.46875 4.4921875 C6.22671875 5.23855469 6.22671875 5.23855469 7 6 C7 6.66 7 7.32 7 8 C-16.33002051 13.41528943 -38.92902285 13.78558152 -62 7 C-61.34 6.34 -60.68 5.68 -60 5 C-56.84765625 5.20703125 -56.84765625 5.20703125 -53.0625 5.8125 C-51.81597656 6.00457031 -50.56945312 6.19664062 -49.28515625 6.39453125 C-46 7 -46 7 -43 8 C-41.27204648 8.06802967 -39.54164635 8.08495645 -37.8125 8.0625 C-36.91144531 8.05347656 -36.01039063 8.04445313 -35.08203125 8.03515625 C-34.05142578 8.01775391 -34.05142578 8.01775391 -33 8 C-33 8.66 -33 9.32 -33 10 C-32.46890625 9.83371094 -31.9378125 9.66742188 -31.390625 9.49609375 C-28.44626949 8.88509187 -25.75499712 8.98061027 -22.75 9.0625 C-17.37858288 9.11663522 -13.13751869 8.44211051 -8 7 C-6.0003559 6.96227087 -3.99945939 6.95350094 -2 7 C-1.01 6.67 -0.02 6.34 1 6 C0.505 3.03 0.505 3.03 0 0 Z " fill="#307D5C" transform="translate(311,416)"/>
<path d="M0 0 C0.33 0 0.66 0 1 0 C1.49954784 8.49231328 -0.63041006 16.32853044 -3.0078125 24.4375 C-4.02396711 28.08605512 -4.78790102 31.71833086 -5.5 35.4375 C-6.22527466 39.2176 -6.97166655 42.9015536 -8.03662109 46.60180664 C-9.26026388 51.47705008 -9.25273476 56.18498513 -9.1953125 61.1875 C-9.1924826 62.13061035 -9.18965271 63.0737207 -9.18673706 64.04541016 C-9.17562442 67.03040756 -9.15053672 70.01509469 -9.125 73 C-9.11495866 75.03515189 -9.10583484 77.07030852 -9.09765625 79.10546875 C-9.07571435 84.07043037 -9.04124673 89.03516275 -9 94 C-8.67 94 -8.34 94 -8 94 C-8 99.28 -8 104.56 -8 110 C-11.70964897 102.58070206 -11.16743987 94.01623711 -11.23828125 85.83984375 C-11.24812042 84.90037903 -11.25795959 83.96091431 -11.26809692 82.99298096 C-11.51237542 53.6426317 -8.60003389 28.18940283 0 0 Z " fill="#C7ECDF" transform="translate(107,231)"/>
<path d="M0 0 C0.66 0 1.32 0 2 0 C5.45092429 15.78319482 6.32034034 30.78555173 5.8125 46.875 C5.78576202 47.73440186 5.75902405 48.59380371 5.73147583 49.47924805 C5.41574224 59.00878594 4.9245657 68.50747565 4 78 C2 76 2 76 1.77294922 73.75895691 C1.78342285 72.8255397 1.79389648 71.8921225 1.8046875 70.93041992 C1.81129395 69.87138962 1.81790039 68.81235931 1.82470703 67.72123718 C1.84130371 66.5692836 1.85790039 65.41733002 1.875 64.23046875 C1.88257324 63.04334793 1.89014648 61.85622711 1.89794922 60.63313293 C1.93063077 55.54504533 1.98635958 50.45727668 2.04101562 45.36938477 C2.07752784 41.65642832 2.10152068 37.94352707 2.125 34.23046875 C2.14159668 33.10078171 2.15819336 31.97109467 2.17529297 30.80717468 C2.21645376 23.99296235 1.63657691 17.56055844 0.4453125 10.84858704 C-0.12993326 7.16883939 -0.14568228 3.71489817 0 0 Z " fill="#2C7B58" transform="translate(467,260)"/>
<path d="M0 0 C1.16228622 -0.00960754 2.32457245 -0.01921509 3.52207947 -0.02911377 C4.78137772 -0.03336365 6.04067596 -0.03761353 7.33813477 -0.04199219 C8.63719254 -0.04769226 9.93625031 -0.05339233 11.27467346 -0.05926514 C14.03110138 -0.06977282 16.78750019 -0.07561513 19.54394531 -0.07910156 C23.04374201 -0.08454683 26.54314185 -0.10848918 30.04281521 -0.13707352 C33.41207903 -0.16041891 36.78129444 -0.16216578 40.15063477 -0.16699219 C41.39171494 -0.17933899 42.6327951 -0.19168579 43.91148376 -0.20440674 C51.83531552 -0.18443438 58.74816088 0.95613119 66.34204102 3.16113281 C68.91800306 3.76620118 71.50204841 4.30473436 74.09204102 4.84863281 C75.28313477 5.1 76.47422852 5.35136719 77.70141602 5.61035156 C78.57282227 5.79210937 79.44422852 5.97386719 80.34204102 6.16113281 C80.34204102 7.15113281 80.34204102 8.14113281 80.34204102 9.16113281 C78.86670898 8.78021484 78.86670898 8.78021484 77.36157227 8.39160156 C72.70859227 7.22050933 68.03277135 6.16944646 63.34204102 5.16113281 C62.24230957 4.92160889 62.24230957 4.92160889 61.12036133 4.67724609 C48.06220219 1.9794972 34.99370599 1.89613313 21.71704102 1.91113281 C20.4059285 1.91216003 20.4059285 1.91216003 19.06832886 1.91320801 C9.78571546 1.93716398 0.57039008 2.03795418 -8.65795898 3.16113281 C-8.65795898 2.50113281 -8.65795898 1.84113281 -8.65795898 1.16113281 C-5.52133303 0.11559083 -3.29270116 0.0219763 0 0 Z " fill="#337F60" transform="translate(259.657958984375,104.8388671875)"/>
<path d="M0 0 C0 0.66 0 1.32 0 2 C1.32 2 2.64 2 4 2 C4 2.66 4 3.32 4 4 C5.65 4 7.3 4 9 4 C9 4.99 9 5.98 9 7 C8.10474609 6.72736328 8.10474609 6.72736328 7.19140625 6.44921875 C-18.2202778 -0.91375063 -41.67016459 -0.56675168 -67 7 C-67 6.34 -67 5.68 -67 5 C-54.83369035 0.16599847 -43.1356239 -1.6537766 -30.125 -2 C-29.08389572 -2.03273514 -29.08389572 -2.03273514 -28.02175903 -2.06613159 C-18.47554555 -2.33669943 -9.40676817 -1.64908321 0 0 Z " fill="#DBF9EF" transform="translate(312,181)"/>
<path d="M0 0 C0.33 0 0.66 0 1 0 C3.45173309 11.33717125 3.30547448 22.65900908 3.26074219 34.20166016 C3.25002377 37.49270045 3.2606835 40.78319503 3.2734375 44.07421875 C3.27937857 54.54951764 3.2239241 64.71625077 1 75 C0.67 75 0.34 75 0 75 C-0.10238181 64.09870002 -0.04590214 53.30740126 0.7734375 42.43359375 C1.70420288 28.32768387 0.62449177 14.10089125 0 0 Z " fill="#D3F3E7" transform="translate(467,268)"/>
<path d="M0 0 C2.31 0.66 4.62 1.32 7 2 C7.061875 2.61875 7.12375 3.2375 7.1875 3.875 C7.828919 6.27761141 7.828919 6.27761141 10.5625 7.25 C11.366875 7.4975 12.17125 7.745 13 8 C13 8.66 13 9.32 13 10 C14.65 10.33 16.3 10.66 18 11 C18 12.32 18 13.64 18 15 C18.721875 15.2475 19.44375 15.495 20.1875 15.75 C24.88397999 17.83732444 28.57772743 21.19747492 32 25 C32 25.66 32 26.32 32 27 C32.639375 27.268125 33.27875 27.53625 33.9375 27.8125 C36 29 36 29 37 32 C37.66 32 38.32 32 39 32 C39 33.65 39 35.3 39 37 C37.12533364 35.2003203 35.31645062 33.3860512 33.66796875 31.375 C28.87844818 25.5548231 23.33349195 20.87694436 17.58984375 16.04296875 C11.52640245 10.93562922 5.55289457 5.6614202 0 0 Z " fill="#2B7755" transform="translate(442,435)"/>
<path d="M0 0 C0.495 1.485 0.495 1.485 1 3 C-4.99639696 8.99639696 -14.01189271 9.13516417 -22 10 C-22.74636719 10.10957031 -23.49273437 10.21914063 -24.26171875 10.33203125 C-30.85955478 10.92680473 -36.4566059 7.10430069 -42 4 C-41.67 3.34 -41.34 2.68 -41 2 C-39.33984375 2.74869792 -37.6796875 3.49739583 -36.01953125 4.24609375 C-26.18220618 7.91844141 -14.72209409 6.97722031 -5.171875 3.0703125 C-2.79674544 1.95821252 -2.79674544 1.95821252 0 0 Z " fill="#2E7B58" transform="translate(469,514)"/>
<path d="M0 0 C0.33 0 0.66 0 1 0 C1.12587002 7.42633147 1.12587002 7.42633147 0.50219727 10.26879883 C-0.03979646 13.21643316 -0.12950643 15.94125893 -0.1328125 18.9375 C-0.13410156 20.08089844 -0.13539063 21.22429687 -0.13671875 22.40234375 C-0.13285156 23.58957031 -0.12898437 24.77679688 -0.125 26 C-0.12886719 27.15628906 -0.13273438 28.31257813 -0.13671875 29.50390625 C-0.1241681 40.73674141 0.81573037 51.83762877 2 63 C0 62 0 62 -1.10839844 59.66040039 C-2.35097971 54.55908027 -2.28544166 49.6657587 -2.265625 44.43359375 C-2.26753845 43.32194351 -2.2694519 42.21029327 -2.27142334 41.06495667 C-2.27278124 38.72079237 -2.26911243 36.37662045 -2.26074219 34.0324707 C-2.25002721 30.4466056 -2.26065635 26.86124031 -2.2734375 23.27539062 C-2.27211603 20.99479056 -2.26955391 18.71419081 -2.265625 16.43359375 C-2.26967346 15.36265976 -2.27372192 14.29172577 -2.27789307 13.18833923 C-2.27158875 12.18702469 -2.26528442 11.18571014 -2.25878906 10.15405273 C-2.25719788 9.2772435 -2.25560669 8.40043427 -2.25396729 7.49705505 C-1.97019376 4.70693933 -1.14994171 2.54559884 0 0 Z " fill="#D0F4E7" transform="translate(181,276)"/>
<path d="M0 0 C0.33 0 0.66 0 1 0 C1.42974039 21.03744502 1.73652703 41.35957568 -3 62 C-3.66 61.34 -4.32 60.68 -5 60 C-4.828125 57.6640625 -4.828125 57.6640625 -4.25 54.625 C-1.18708792 36.52417764 -0.5093008 18.32654748 0 0 Z " fill="#337C5D" transform="translate(385,289)"/>
<path d="M0 0 C-0.33 0.99 -0.66 1.98 -1 3 C-11.44518339 4.89883085 -21.54242732 5.28430325 -32.12670898 5.20581055 C-34.72193993 5.18725374 -37.31681818 5.18530362 -39.91210938 5.18554688 C-41.57031559 5.18064067 -43.22851941 5.17481632 -44.88671875 5.16796875 C-45.65851974 5.16685593 -46.43032074 5.1657431 -47.22550964 5.16459656 C-50.41051603 5.13619203 -52.95661096 5.01446301 -56 4 C-56 3.34 -56 2.68 -56 2 C-55.44957031 2.0721875 -54.89914062 2.144375 -54.33203125 2.21875 C-35.60721633 4.3089619 -18.31996611 0 0 0 Z " fill="#E3FCF3" transform="translate(317,424)"/>
<path d="M0 0 C14.60353688 3.47434243 26.98184288 10.1170143 39 19 C38.01 19.33 37.02 19.66 36 20 C33.80078125 18.70703125 33.80078125 18.70703125 31.3125 16.8125 C25.89845655 12.85273975 20.62714296 9.48891758 14 8 C14 7.34 14 6.68 14 6 C13.00419922 5.80083984 13.00419922 5.80083984 11.98828125 5.59765625 C7.65885417 4.73177083 3.32942708 3.86588542 -1 3 C-0.67 2.01 -0.34 1.02 0 0 Z " fill="#2D7656" transform="translate(308,184)"/>
<path d="M0 0 C0.66 0.33 1.32 0.66 2 1 C2.48128844 2.98932555 2.95773043 4.98145527 3.33984375 6.9921875 C4.12183095 9.37053911 5.22753948 10.26751979 7 12 C8.10484066 14.24217663 9.0094589 16.52364724 9.9375 18.84375 C10.88478239 21.05780031 10.88478239 21.05780031 12.61328125 22.61328125 C14 24 14 24 14.1875 26.6875 C14.125625 27.450625 14.06375 28.21375 14 29 C14.66 29 15.32 29 16 29 C15.67 30.32 15.34 31.64 15 33 C1.2306928 11.365098 1.2306928 11.365098 -1 3 C-0.67 2.01 -0.34 1.02 0 0 Z " fill="#2B7C58" transform="translate(190,358)"/>
<path d="M0 0 C0.33 0 0.66 0 1 0 C1.04983765 5.78001685 1.08592481 11.55990564 1.10986328 17.34008789 C1.11985425 19.30202415 1.13345163 21.26394578 1.15087891 23.22583008 C1.3319431 44.14939522 1.3319431 44.14939522 -1 53 C-3.5177341 49.22339885 -2.83457045 47.05076321 -2.1875 42.8125 C-0.94325061 33.52356914 -0.62876444 24.23148233 -0.375 14.875 C-0.35480804 14.14125153 -0.33461609 13.40750305 -0.31381226 12.65151978 C-0.19953122 8.43455536 -0.09551551 4.21743707 0 0 Z " fill="#CDEFE3" transform="translate(386,295)"/>
<path d="M0 0 C0.66 0.33 1.32 0.66 2 1 C0.35 11.23 -1.3 21.46 -3 32 C-3.33 32 -3.66 32 -4 32 C-5.90118721 20.9731142 -3.9394476 10.38581639 0 0 Z " fill="#207550" transform="translate(100,249)"/>
<path d="M0 0 C3.5465913 4.16231896 6.26578154 8.60218729 9 13.3125 C9.42539062 14.03373047 9.85078125 14.75496094 10.2890625 15.49804688 C18 28.68469613 18 28.68469613 18 32 C15 31 15 31 13.88085938 29.17407227 C13.53861328 28.39604248 13.19636719 27.6180127 12.84375 26.81640625 C12.46089844 25.97142578 12.07804687 25.12644531 11.68359375 24.25585938 C11.29300781 23.36705078 10.90242188 22.47824219 10.5 21.5625 C9.72663338 19.81030137 8.94569298 18.06142079 8.15625 16.31640625 C7.81400391 15.53724854 7.47175781 14.75809082 7.11914062 13.95532227 C6.01392026 11.68674415 6.01392026 11.68674415 3 10 C2.63837971 8.67405895 2.30271961 7.34061543 2 6 C1.34 5.67 0.68 5.34 0 5 C0 3.35 0 1.7 0 0 Z " fill="#CEF1E4" transform="translate(434,184)"/>
<path d="M0 0 C2.41674224 -0.02705308 4.8331794 -0.04686438 7.25 -0.0625 C7.93191406 -0.07087891 8.61382812 -0.07925781 9.31640625 -0.08789062 C14.58128917 -0.11344831 14.58128917 -0.11344831 16.79492188 0.48632812 C19.85300212 1.19870643 22.8159969 1.22335584 25.953125 1.31640625 C26.94345734 1.3475779 26.94345734 1.3475779 27.95379639 1.37937927 C30.05243015 1.44450147 32.15118372 1.50358502 34.25 1.5625 C35.67709547 1.60572079 37.10417905 1.6493362 38.53125 1.69335938 C42.02070722 1.80014411 45.51029753 1.90151566 49 2 C49 2.33 49 2.66 49 3 C43.95037222 3.0499887 38.90089315 3.08599384 33.85107422 3.10986328 C32.13848354 3.11982955 30.42590946 3.13340747 28.71337891 3.15087891 C18.94015144 3.24798286 9.60025818 3.13419273 0 1 C0 0.67 0 0.34 0 0 Z " fill="#C3EADB" transform="translate(252,499)"/>
<path d="M0 0 C2.71573049 5.43146098 2.8542989 8.56601708 2.0625 14.625 C1.91264648 15.82769531 1.91264648 15.82769531 1.75976562 17.0546875 C1.5119582 19.03714691 1.25668193 21.01867009 1 23 C0.67 23 0.34 23 0 23 C-0.33 28.94 -0.66 34.88 -1 41 C-1.33 41 -1.66 41 -2 41 C-2.41277905 11.65458453 -2.41277905 11.65458453 0 0 Z " fill="#3A8465" transform="translate(182,275)"/>
<path d="M0 0 C0.64324219 0.36351562 1.28648437 0.72703125 1.94921875 1.1015625 C12.96666251 7.23109612 23.58411124 12.44970933 36 15 C36 15.33 36 15.66 36 16 C22.94093459 17.18718776 10.98405545 9.09068478 0 3 C0 2.01 0 1.02 0 0 Z " fill="#D5F4E8" transform="translate(225,410)"/>
<path d="M0 0 C1.875 0.625 1.875 0.625 4 2 C4.72693904 3.97888961 5.39816251 5.97954558 6 8 C6.66 8.33 7.32 8.66 8 9 C8.50398293 10.88153628 8.99714804 12.76697307 9.421875 14.66796875 C10.21647223 17.87320218 11.35732413 20.92837977 12.51171875 24.01953125 C13 26 13 26 12 29 C10.24008036 26.36012054 9.22590884 24.22614625 8.125 21.2890625 C7.77953125 20.37382812 7.4340625 19.45859375 7.078125 18.515625 C6.54445313 17.08476562 6.54445313 17.08476562 6 15.625 C5.2919775 13.74207059 4.58365371 11.85925444 3.875 9.9765625 C3.56304687 9.14205566 3.25109375 8.30754883 2.9296875 7.44775391 C1.98213275 4.95295771 0.9981461 2.47493859 0 0 Z " fill="#297956" transform="translate(449,209)"/>
<path d="M0 0 C2.52732826 1.88738092 4.34273566 2.23273093 7.44140625 2.71484375 C8.40433594 2.87210937 9.36726563 3.029375 10.359375 3.19140625 C12.65551167 3.52173903 14.95095008 3.81329829 17.25390625 4.08984375 C18.20265625 4.25484375 19.15140625 4.41984375 20.12890625 4.58984375 C20.45890625 5.24984375 20.78890625 5.90984375 21.12890625 6.58984375 C22.11890625 7.24984375 23.10890625 7.90984375 24.12890625 8.58984375 C19.07654061 7.9468154 14.19138665 6.97421074 9.25390625 5.71484375 C8.55716797 5.53920898 7.86042969 5.36357422 7.14257812 5.18261719 C2.05001179 3.87749902 -2.91808138 2.35877674 -7.87109375 0.58984375 C-7.87109375 0.25984375 -7.87109375 -0.07015625 -7.87109375 -0.41015625 C-2.36927368 -1.78561127 -2.36927368 -1.78561127 0 0 Z " fill="#CBEEE1" transform="translate(223.87109375,490.41015625)"/>
<path d="M0 0 C0.66 0.66 1.32 1.32 2 2 C1.51144531 2.99 1.02289063 3.98 0.51953125 5 C-1.18101859 8.97962694 -1.41518799 12.71174935 -1.3125 17 C-1.31572266 17.67289062 -1.31894531 18.34578125 -1.32226562 19.0390625 C-1.27246 23.72984661 -0.44139206 27.58968485 1 32 C0.01 31.67 -0.98 31.34 -2 31 C-2.19916016 29.53626953 -2.19916016 29.53626953 -2.40234375 28.04296875 C-2.57894531 26.77066406 -2.75554687 25.49835938 -2.9375 24.1875 C-3.11152344 22.92292969 -3.28554688 21.65835937 -3.46484375 20.35546875 C-3.90392455 17.01678297 -3.90392455 17.01678297 -5 14 C-4.765625 11.40625 -4.765625 11.40625 -4.25 8.5 C-4.09015625 7.5409375 -3.9303125 6.581875 -3.765625 5.59375 C-2.96055179 2.86635911 -2.1756533 1.76921257 0 0 Z " fill="#277C56" transform="translate(291,364)"/>
<path d="M0 0 C0.66 0.33 1.32 0.66 2 1 C1.43152344 1.84820312 0.86304688 2.69640625 0.27734375 3.5703125 C-5.15192885 11.78089254 -9.79237293 20.09768936 -14 29 C-15.53271273 24.41201223 -14.02911182 22.22055258 -12 18 C-11.34 18 -10.68 18 -10 18 C-10 16.68 -10 15.36 -10 14 C-9.34 14 -8.68 14 -8 14 C-7.67 12.02 -7.34 10.04 -7 8 C-6.01 7.67 -5.02 7.34 -4 7 C-3.64587656 5.67203709 -3.31478446 4.33783393 -3 3 C-1.4375 1.25 -1.4375 1.25 0 0 Z " fill="#D9F7ED" transform="translate(205,217)"/>
<path d="M0 0 C0.33 0 0.66 0 1 0 C1.25007388 2.39528594 1.47552126 4.78879325 1.6875 7.1875 C1.76033203 7.86103516 1.83316406 8.53457031 1.90820312 9.22851562 C2.28987728 13.83105689 1.8347749 16.35528941 -1 20 C-2.18511954 21.312006 -3.41352015 22.58659486 -4.6875 23.8125 C-5.31011719 24.41707031 -5.93273437 25.02164062 -6.57421875 25.64453125 C-7.04472656 26.09183594 -7.51523437 26.53914063 -8 27 C-8.66 26.67 -9.32 26.34 -10 26 C-9.60167969 25.5153125 -9.20335937 25.030625 -8.79296875 24.53125 C-2.57613146 16.66566511 -0.59175607 9.95782632 0 0 Z " fill="#388562" transform="translate(484,484)"/>
<path d="M0 0 C0.66 0 1.32 0 2 0 C1.32116957 3.11547441 0.25893098 5.85137721 -1.0625 8.75 C-1.60583984 9.94882812 -1.60583984 9.94882812 -2.16015625 11.171875 C-2.43730469 11.77515625 -2.71445312 12.3784375 -3 13 C-7.41889613 11.64978174 -9.34345343 9.73884332 -12 6 C-11.34 5.67 -10.68 5.34 -10 5 C-10 5.66 -10 6.32 -10 7 C-8.02 7.66 -6.04 8.32 -4 9 C-3.71125 7.88625 -3.4225 6.7725 -3.125 5.625 C-2 2 -2 2 0 0 Z " fill="#338160" transform="translate(377,360)"/>
<path d="M0 0 C0.33 0 0.66 0 1 0 C1.56718536 9.64215118 -1.22986235 18.83723701 -4 28 C-4.33 28 -4.66 28 -5 28 C-5.8006296 18.07219294 -2.86436295 9.39101853 0 0 Z " fill="#E0F8F0" transform="translate(107,231)"/>
<path d="M0 0 C4.30193922 7.55644976 5.51481671 17.41972158 5 26 C4.01 25.67 3.02 25.34 2 25 C1.66178803 22.14633646 1.3293022 19.29219404 1 16.4375 C0.90460938 15.63763672 0.80921875 14.83777344 0.7109375 14.01367188 C0.17285824 9.30547833 -0.10176703 4.73852735 0 0 Z " fill="#317C5B" transform="translate(380,261)"/>
<path d="M0 0 C0.33 0 0.66 0 1 0 C1.47800538 3.18670251 1.47987254 5.28019118 -0.3359375 8.00390625 C-1.42446094 9.35050684 -2.5410887 10.67498235 -3.6875 11.97265625 C-5.30829943 14.47621252 -5.24340933 16.07401702 -5 19 C-5.99 19 -6.98 19 -8 19 C-8.7960858 16.70722231 -9.18147939 15.47690799 -8.30322266 13.16894531 C-7.9272998 12.56147461 -7.55137695 11.95400391 -7.1640625 11.328125 C-6.75929688 10.66425781 -6.35453125 10.00039063 -5.9375 9.31640625 C-5.504375 8.63449219 -5.07125 7.95257813 -4.625 7.25 C-3.98691406 6.20392578 -3.98691406 6.20392578 -3.3359375 5.13671875 C-2.26213398 3.40028331 -1.13541425 1.69679007 0 0 Z " fill="#2B7756" transform="translate(444,412)"/>
<path d="M0 0 C1.99434904 3.27311769 2.13440904 5.2291122 1.5390625 8.984375 C1.39726562 9.91894531 1.25546875 10.85351562 1.109375 11.81640625 C0.94953125 12.78449219 0.7896875 13.75257813 0.625 14.75 C0.47289062 15.73355469 0.32078125 16.71710938 0.1640625 17.73046875 C-0.21266601 20.15565854 -0.60104856 22.5783838 -1 25 C-1.99 25.33 -2.98 25.66 -4 26 C-2.66666667 17.33333333 -1.33333333 8.66666667 0 0 Z " fill="#2D7A59" transform="translate(468,336)"/>
<path d="M0 0 C1.19882812 0.39832031 1.19882812 0.39832031 2.421875 0.8046875 C9.90340313 3.21071885 17.21483647 4.93392355 25 6 C20.57173714 8.4513598 16.98349398 8.87814872 12 8 C7.83460432 6.2798366 3.91543943 4.22603663 0 2 C0 1.34 0 0.68 0 0 Z " fill="#1A7149" transform="translate(427,516)"/>
<path d="M0 0 C7.34487056 0.33342473 14.46769148 1.57831458 21 5 C21 5.33 21 5.66 21 6 C13.04601192 5.54593375 5.67202093 4.12888539 -2 2 C-1.34 1.34 -0.68 0.68 0 0 Z " fill="#2A7654" transform="translate(251,421)"/>
<path d="M0 0 C-0.59167969 0.49628906 -1.18335938 0.99257813 -1.79296875 1.50390625 C-6.63895712 5.67003329 -10.53175088 9.62980781 -14 15 C-14.66 14.34 -15.32 13.68 -16 13 C-12.83561644 6.21917808 -12.83561644 6.21917808 -10 4 C-9.34 4 -8.68 4 -8 4 C-8 3.01 -8 2.02 -8 1 C-2.25 -1.125 -2.25 -1.125 0 0 Z " fill="#247551" transform="translate(307,350)"/>
<path d="M0 0 C7.84935328 8.97068946 8.54054238 16.46842927 8 28 C7.67 28 7.34 28 7 28 C7 24.37 7 20.74 7 17 C6.34 17 5.68 17 5 17 C4.67 15.02 4.34 13.04 4 11 C3.67 11 3.34 11 3 11 C2.67 8.69 2.34 6.38 2 4 C1.34 4 0.68 4 0 4 C0 2.68 0 1.36 0 0 Z " fill="#D5F6EA" transform="translate(476,466)"/>
<path d="M0 0 C0.33 0 0.66 0 1 0 C1 2.64 1 5.28 1 8 C0.34 8 -0.32 8 -1 8 C-0.938125 9.03125 -0.87625 10.0625 -0.8125 11.125 C-1.01135595 15.23468973 -1.94467803 17.48882496 -4 21 C-4.66 20.67 -5.32 20.34 -6 20 C-4.22089072 13.24947898 -2.29561809 6.59379663 0 0 Z " fill="#2A7C57" transform="translate(462,368)"/>
<path d="M0 0 C3.48144749 -0.32385558 5.40885922 -0.38890841 8.375 1.5625 C9.24125 2.366875 10.1075 3.17125 11 4 C12.43512967 5.25272067 13.87276889 6.50257041 15.3125 7.75 C16.5425838 8.83229185 17.77206376 9.9152722 19 11 C18.01 11.66 17.02 12.32 16 13 C15.34773438 12.38511719 14.69546875 11.77023437 14.0234375 11.13671875 C13.14945312 10.32847656 12.27546875 9.52023437 11.375 8.6875 C10.51648438 7.88699219 9.65796875 7.08648437 8.7734375 6.26171875 C5.97799034 3.98205128 3.27579084 2.48419262 0 1 C0 0.67 0 0.34 0 0 Z " fill="#2C7957" transform="translate(341,348)"/>
<path d="M0 0 C5.76774721 4.89004655 11.39476999 9.92484204 17 15 C16.01 15.33 15.02 15.66 14 16 C13.67 15.01 13.34 14.02 13 13 C11.67280472 12.64301038 10.33808287 12.31372458 9 12 C6.89453125 10.546875 6.89453125 10.546875 4.8125 8.75 C4.11769531 8.16734375 3.42289063 7.5846875 2.70703125 6.984375 C0.70823709 4.66083397 0.34744509 3.00773361 0 0 Z " fill="#287754" transform="translate(146,445)"/>
<path d="M0 0 C2.9217832 0.3130482 3.85149204 0.81966891 5.75 3.125 C6.4925 4.07375 7.235 5.0225 8 6 C10.5989124 8.41398979 13.28724555 10.71522866 16 13 C15.34 13.66 14.68 14.32 14 15 C12.03483377 13.25719203 10.07799631 11.50635594 8.125 9.75 C7.56941406 9.25886719 7.01382813 8.76773437 6.44140625 8.26171875 C3.64150364 5.73168627 1.34491479 3.57508995 0 0 Z " fill="#2D7D59" transform="translate(208,393)"/>
<path d="M0 0 C-2.89315371 1.15268129 -5.78995487 2.29590743 -8.6875 3.4375 C-9.50412109 3.76298828 -10.32074219 4.08847656 -11.16210938 4.42382812 C-15.08245663 5.96339769 -18.80540049 7.39344895 -23 8 C-22 5 -22 5 -19.1875 3.5 C-5.52272727 -1.84090909 -5.52272727 -1.84090909 0 0 Z " fill="#D7F7EC" transform="translate(367,485)"/>
<path d="M0 0 C7.26 0.99 14.52 1.98 22 3 C18.75582876 5.16278083 18.45725303 5.22034409 14.875 4.6875 C13.69744141 4.52507812 13.69744141 4.52507812 12.49609375 4.359375 C11.67238281 4.24078125 10.84867188 4.1221875 10 4 C8.31316177 3.80663694 6.6256718 3.61885179 4.9375 3.4375 C3.638125 3.293125 2.33875 3.14875 1 3 C0.67 2.01 0.34 1.02 0 0 Z " fill="#287855" transform="translate(242,498)"/>
<path d="M0 0 C3.99887575 0.57126796 6.59653716 1.87283572 10 4 C11.65369357 4.69822617 13.31727014 5.37498605 15 6 C15 6.66 15 7.32 15 8 C17.475 8.495 17.475 8.495 20 9 C19.67 9.66 19.34 10.32 19 11 C12.03264666 9.16648596 4.90283719 5.35000149 0 0 Z " fill="#297753" transform="translate(223,408)"/>
<path d="M0 0 C1.21474475 3.64423425 0.70193132 4.28488743 -0.87109375 7.66796875 C-1.48500977 9.00698242 -1.48500977 9.00698242 -2.11132812 10.37304688 C-2.54896484 11.30181641 -2.98660156 12.23058594 -3.4375 13.1875 C-3.87126953 14.12787109 -4.30503906 15.06824219 -4.75195312 16.03710938 C-5.82600195 18.36224805 -6.90894188 20.6828064 -8 23 C-9.25955231 19.22134307 -8.48087189 17.96588214 -7.0625 14.3125 C-6.49208984 12.82169922 -6.49208984 12.82169922 -5.91015625 11.30078125 C-5.60980469 10.54152344 -5.30945313 9.78226562 -5 9 C-4.34 9 -3.68 9 -3 9 C-3 7.35 -3 5.7 -3 4 C-2.34 4 -1.68 4 -1 4 C-0.67 2.68 -0.34 1.36 0 0 Z " fill="#D8F8EC" transform="translate(456,383)"/>
<path d="M0 0 C2.02225194 3.0333779 2.99347524 5.61344489 4.125 9.0625 C4.47820312 10.12597656 4.83140625 11.18945312 5.1953125 12.28515625 C6 15 6 15 6 17 C5.01 17.33 4.02 17.66 3 18 C0.22528921 11.75690073 -0.37634203 6.80203375 0 0 Z " fill="#337E5E" transform="translate(104,368)"/>
<path d="M0 0 C0.66 0 1.32 0 2 0 C7.55580866 13.6332574 7.55580866 13.6332574 8 20 C5.25942675 16.72899322 3.81941925 13.41522379 2.3125 9.4375 C1.87550781 8.30183594 1.43851562 7.16617187 0.98828125 5.99609375 C0 3 0 3 0 0 Z " fill="#D9F7EC" transform="translate(109,380)"/>
<path d="M0 0 C0.33 0 0.66 0 1 0 C1.50688605 2.54046458 2.00566874 5.08208876 2.5 7.625 C2.64308594 8.33785156 2.78617188 9.05070312 2.93359375 9.78515625 C3.73049426 13.92144935 4.16034056 17.76433679 4 22 C2 21 2 21 0.8828125 18.4296875 C-0.10445072 14.59421356 -0.22387631 11.04962876 -0.125 7.125 C-0.11146484 6.09246094 -0.11146484 6.09246094 -0.09765625 5.0390625 C-0.07432513 3.35922162 -0.03846326 1.67956254 0 0 Z " fill="#DCF9EE" transform="translate(179,317)"/>
<path d="M0 0 C-0.30457491 2.94422416 -0.83492679 3.85920226 -3.125 5.8125 C-6.79439779 7.32812083 -9.17481546 6.8250398 -13 6 C-9.40464172 2.97989905 -4.81374718 0 0 0 Z " fill="#2E7F5D" transform="translate(249,187)"/>
<path d="M0 0 C0.66 0.33 1.32 0.66 2 1 C-0.625 5.875 -0.625 5.875 -4 7 C-4.33 7.99 -4.66 8.98 -5 10 C-7.0625 11.6875 -7.0625 11.6875 -9 13 C-9.66 12.67 -10.32 12.34 -11 12 C-9.54234835 10.37438849 -8.08385614 8.74953066 -6.625 7.125 C-5.81289062 6.22007812 -5.00078125 5.31515625 -4.1640625 4.3828125 C-2.80923795 2.89103817 -1.42494565 1.42494565 0 0 Z " fill="#358161" transform="translate(218,205)"/>
<path d="M0 0 C0.61875 0.639375 1.2375 1.27875 1.875 1.9375 C5.37481215 5.44739807 9.09536376 8.71325552 12.79296875 12.01171875 C14.2286351 13.30508896 15.6336281 14.6336281 17 16 C12.07844679 15.57815258 10.23195858 13.61671555 7 10 C6.38253906 9.32710938 5.76507813 8.65421875 5.12890625 7.9609375 C0 2.28508551 0 2.28508551 0 0 Z " fill="#D4F6EA" transform="translate(208,394)"/>
<path d="M0 0 C0.66 0 1.32 0 2 0 C3.03789581 1.64333504 4.03567924 3.31243867 5 5 C5.66 5.66 6.32 6.32 7 7 C7.125 9.625 7.125 9.625 7 12 C7.66 12 8.32 12 9 12 C8.67 13.32 8.34 14.64 8 16 C6.6583797 13.9007236 5.32663161 11.7962168 4 9.6875 C3.6184375 9.09259766 3.236875 8.49769531 2.84375 7.88476562 C0 3.33984375 0 3.33984375 0 0 Z " fill="#257150" transform="translate(197,375)"/>
<path d="M0 0 C-0.33 0.99 -0.66 1.98 -1 3 C-6.20173095 3.86809439 -11.16978816 4.12515348 -16.4375 4.0625 C-17.16904297 4.05798828 -17.90058594 4.05347656 -18.65429688 4.04882812 C-20.43623419 4.03718148 -22.21812863 4.01925191 -24 4 C-24 3.67 -24 3.34 -24 3 C-22.83082031 2.86722656 -21.66164063 2.73445313 -20.45703125 2.59765625 C-18.90884161 2.41937987 -17.36066522 2.24098839 -15.8125 2.0625 C-14.65911133 1.93198242 -14.65911133 1.93198242 -13.48242188 1.79882812 C-9.02913422 1.28278192 -4.45159368 0 0 0 Z " fill="#D0EFE4" transform="translate(317,424)"/>
<path d="M0 0 C0.66 0 1.32 0 2 0 C2.70304222 1.72290605 3.38683491 3.45367466 4.0625 5.1875 C4.44535156 6.15042969 4.82820313 7.11335937 5.22265625 8.10546875 C6.05622133 11.20934675 5.88679818 12.94919117 5 16 C2.57395248 13.57395248 2.24156481 11.85807224 1.375 8.5625 C1.11460937 7.59441406 0.85421875 6.62632812 0.5859375 5.62890625 C0 3 0 3 0 0 Z " fill="#388363" transform="translate(374,245)"/>
<path d="M0 0 C0.99 0.33 1.98 0.66 3 1 C4.12862175 6.36095333 4.09688221 11.55306686 4 17 C3.34 17.33 2.68 17.66 2 18 C1.34 12.06 0.68 6.12 0 0 Z " fill="#1C734C" transform="translate(483,477)"/>
<path d="M0 0 C0.66 0 1.32 0 2 0 C0.64923094 3.62369777 -0.98330615 6.82770556 -3 10.125 C-3.515625 10.97320312 -4.03125 11.82140625 -4.5625 12.6953125 C-5.67758809 14.4830896 -6.83123097 16.24684645 -8 18 C-8 16.02 -8 14.04 -8 12 C-7.01 11.67 -6.02 11.34 -5 11 C-4.3185177 9.10820797 -4.3185177 9.10820797 -4 7 C-3.67 6.01 -3.34 5.02 -3 4 C-2.34 4 -1.68 4 -1 4 C-0.67 2.68 -0.34 1.36 0 0 Z " fill="#D5F3E8" transform="translate(442,412)"/>
<path d="M0 0 C0 0.66 0 1.32 0 2 C-0.99 2 -1.98 2 -3 2 C-3.268125 2.598125 -3.53625 3.19625 -3.8125 3.8125 C-5.00987475 6.01819033 -6.04478984 7.43583187 -8 9 C-8.99 9 -9.98 9 -11 9 C-11 9.66 -11 10.32 -11 11 C-11.66 11 -12.32 11 -13 11 C-11.63310446 7.84930578 -10.14342115 5.99108226 -7.5 3.8125 C-6.8915625 3.30332031 -6.283125 2.79414063 -5.65625 2.26953125 C-3.66399714 0.74245064 -2.53832112 0 0 0 Z " fill="#D9F4E9" transform="translate(310,349)"/>
<path d="M0 0 C2 2 2 2 2.125 5.125 C2.08375 6.07375 2.0425 7.0225 2 8 C2.66 8 3.32 8 4 8 C4 11.96 4 15.92 4 20 C3.67 20 3.34 20 3 20 C2.30319306 16.85615273 1.61912457 13.70967088 0.9375 10.5625 C0.73833984 9.66466797 0.53917969 8.76683594 0.33398438 7.84179688 C0.15029297 6.98779297 -0.03339844 6.13378906 -0.22265625 5.25390625 C-0.48187866 4.06776733 -0.48187866 4.06776733 -0.74633789 2.85766602 C-0.83004639 2.24463623 -0.91375488 1.63160645 -1 1 C-0.67 0.67 -0.34 0.34 0 0 Z " fill="#307C5B" transform="translate(462,238)"/>
<path d="M0 0 C-1.53158108 1.15927975 -3.07579793 2.30187547 -4.625 3.4375 C-5.48351562 4.07558594 -6.34203125 4.71367188 -7.2265625 5.37109375 C-10.22437238 7.13177927 -12.56671931 7.64257635 -16 8 C-15.34 7.34 -14.68 6.68 -14 6 C-13.01 6 -12.02 6 -11 6 C-11 5.34 -11 4.68 -11 4 C-10.01 4 -9.02 4 -8 4 C-7.71125 3.360625 -7.4225 2.72125 -7.125 2.0625 C-5.18025038 -1.5028743 -3.54277596 -1.06283279 0 0 Z " fill="#D5F6EA" transform="translate(474,511)"/>
<path d="M0 0 C-6.15272679 3.22722983 -12.1989587 3.13602083 -19 3 C-18.67 2.34 -18.34 1.68 -18 1 C-12.17592235 -0.57407504 -5.98360949 -0.08713994 0 0 Z " fill="#C7EDE0" transform="translate(322,498)"/>
<path d="M0 0 C-2.51231378 2.51231378 -4.37851766 2.78661713 -7.8125 3.625 C-9.36904297 4.01558594 -9.36904297 4.01558594 -10.95703125 4.4140625 C-13.73587837 4.94914218 -16.18176362 5.11460481 -19 5 C-16.07540663 2.53469612 -13.81790145 1.48951382 -10.0625 0.8125 C-8.81146484 0.57466797 -8.81146484 0.57466797 -7.53515625 0.33203125 C-4.99184871 -0.00106758 -2.56182553 -0.05957734 0 0 Z " fill="#D3F5EA" transform="translate(342,493)"/>
<path d="M0 0 C0.66 0.33 1.32 0.66 2 1 C0.68 6.28 -0.64 11.56 -2 17 C-2.66 16.67 -3.32 16.34 -4 16 C-3.68917128 14.24970238 -3.37626821 12.49977306 -3.0625 10.75 C-2.88847656 9.77546875 -2.71445313 8.8009375 -2.53515625 7.796875 C-1.29015544 1.29015544 -1.29015544 1.29015544 0 0 Z " fill="#207250" transform="translate(107,224)"/>
<path d="M0 0 C-1.47721422 3.45201639 -3.43794001 5.64961936 -6.125 8.25 C-6.84945312 8.95640625 -7.57390625 9.6628125 -8.3203125 10.390625 C-8.87460938 10.92171875 -9.42890625 11.4528125 -10 12 C-10.99 11.67 -11.98 11.34 -13 11 C-11.21427748 9.16052663 -9.42197551 7.32842259 -7.625 5.5 C-7.11710938 4.97535156 -6.60921875 4.45070312 -6.0859375 3.91015625 C-2.2265625 0 -2.2265625 0 0 0 Z " fill="#1E714D" transform="translate(157,152)"/>
<path d="M0 0 C0.66 0.33 1.32 0.66 2 1 C2.33663062 4.70293685 2.47736015 6.39534381 0.125 9.375 C-2 11 -2 11 -4 11 C-3.52269162 9.5410574 -3.04308958 8.08286504 -2.5625 6.625 C-2.29566406 5.81289062 -2.02882812 5.00078125 -1.75390625 4.1640625 C-1 2 -1 2 0 0 Z " fill="#2B7D58" transform="translate(193,240)"/>
<path d="M0 0 C4.54075781 4.14010271 7.71842138 8.82390176 11 14 C9.68 13.67 8.36 13.34 7 13 C7 12.34 7 11.68 7 11 C6.34 11 5.68 11 5 11 C4.67 9.35 4.34 7.7 4 6 C3.34 6 2.68 6 2 6 C1.34 4.02 0.68 2.04 0 0 Z " fill="#307B5B" transform="translate(354,211)"/>
<path d="M0 0 C1.20366211 0.00483398 1.20366211 0.00483398 2.43164062 0.00976562 C3.68170898 0.02233398 3.68170898 0.02233398 4.95703125 0.03515625 C5.80201172 0.03966797 6.64699219 0.04417969 7.51757812 0.04882812 C9.6015928 0.06060222 11.68557102 0.07853735 13.76953125 0.09765625 C13.76953125 0.42765625 13.76953125 0.75765625 13.76953125 1.09765625 C3.37453125 2.08765625 3.37453125 2.08765625 -7.23046875 3.09765625 C-7.23046875 2.43765625 -7.23046875 1.77765625 -7.23046875 1.09765625 C-4.46481493 0.17577164 -2.84763173 -0.02019597 0 0 Z " fill="#227552" transform="translate(258.23046875,104.90234375)"/>
<path d="M0 0 C0.33 0 0.66 0 1 0 C0.37033382 6.1917174 -0.49123345 10.73685018 -4 16 C-4.66 16 -5.32 16 -6 16 C-4.25192871 10.53262809 -2.34205919 5.24175152 0 0 Z " fill="#2F7A59" transform="translate(455,388)"/>
<path d="M0 0 C0.99 0.33 1.98 0.66 3 1 C4.04976964 4.14930893 4.10131595 6.38814456 4.0625 9.6875 C4.05347656 10.68136719 4.04445313 11.67523438 4.03515625 12.69921875 C4.02355469 13.45847656 4.01195313 14.21773438 4 15 C1.81257986 11.7188698 1.45557194 9.66915644 0.875 5.8125 C0.70742187 4.72582031 0.53984375 3.63914062 0.3671875 2.51953125 C0.24601562 1.68808594 0.12484375 0.85664063 0 0 Z " fill="#D4F5EB" transform="translate(99,345)"/>
<path d="M0 0 C0.66 0 1.32 0 2 0 C2 0.66 2 1.32 2 2 C2.62390625 2.23460937 3.2478125 2.46921875 3.890625 2.7109375 C6.60255941 4.36823075 6.88975997 5.6141599 7.75 8.625 C7.99234375 9.44226563 8.2346875 10.25953125 8.484375 11.1015625 C8.73960937 12.04128906 8.73960937 12.04128906 9 13 C8.01 13.495 8.01 13.495 7 14 C4.69 9.38 2.38 4.76 0 0 Z " fill="#267554" transform="translate(441,194)"/>
<path d="M0 0 C2.31 0.66 4.62 1.32 7 2 C7.061875 2.61875 7.12375 3.2375 7.1875 3.875 C7.828919 6.27761141 7.828919 6.27761141 10.5625 7.25 C11.366875 7.4975 12.17125 7.745 13 8 C13 8.66 13 9.32 13 10 C9.11645706 9.42993865 7.10304001 7.61062485 4.25 5 C3.45078125 4.278125 2.6515625 3.55625 1.828125 2.8125 C1.22484375 2.214375 0.6215625 1.61625 0 1 C0 0.67 0 0.34 0 0 Z " fill="#317E5A" transform="translate(442,435)"/>
<path d="M0 0 C0.99 0 1.98 0 3 0 C3 2 3 2 1.3203125 3.69140625 C0.59585938 4.30886719 -0.12859375 4.92632812 -0.875 5.5625 C-1.59429687 6.18253906 -2.31359375 6.80257812 -3.0546875 7.44140625 C-5 9 -5 9 -7 10 C-7.33 9.01 -7.66 8.02 -8 7 C-6.6875 5.5 -6.6875 5.5 -5 4 C-4.01 4 -3.02 4 -2 4 C-1.34 2.68 -0.68 1.36 0 0 Z " fill="#317F5C" transform="translate(164,144)"/>
<path d="M0 0 C4.62 2.31 9.24 4.62 14 7 C14 7.33 14 7.66 14 8 C12.02 8 10.04 8 8 8 C8 7.34 8 6.68 8 6 C6.35 5.67 4.7 5.34 3 5 C3 4.34 3 3.68 3 3 C2.01 2.67 1.02 2.34 0 2 C0 1.34 0 0.68 0 0 Z " fill="#2C7A57" transform="translate(182,474)"/>
<path d="M0 0 C2.0625 0.4375 2.0625 0.4375 4 1 C0.9666221 3.02225194 -1.61344489 3.99347524 -5.0625 5.125 C-6.12597656 5.47820312 -7.18945312 5.83140625 -8.28515625 6.1953125 C-11 7 -11 7 -13 7 C-12.67 6.01 -12.34 5.02 -12 4 C-9.53125 3.0859375 -9.53125 3.0859375 -6.5 2.375 C-2.95087626 1.76862284 -2.95087626 1.76862284 0 0 Z " fill="#277554" transform="translate(227,111)"/>
<path d="M0 0 C5.19209404 -0.21192221 9.126739 0.4087311 14 2 C14 2.99 14 3.98 14 5 C12.03964825 4.55037804 10.08175691 4.09001752 8.125 3.625 C7.03445313 3.36976562 5.94390625 3.11453125 4.8203125 2.8515625 C2 2 2 2 0 0 Z " fill="#247653" transform="translate(326,109)"/>
<path d="M0 0 C4.02511753 0.61924885 6.82648821 2.51638207 10 5 C11.375 7.75 11.375 7.75 12 10 C7.72754004 7.2534186 3.81413925 4.36007505 0 1 C0 0.67 0 0.34 0 0 Z " fill="#D4F6E9" transform="translate(406,500)"/>
<path d="M0 0 C1.1725131 0.95117134 2.33787015 1.91117009 3.5 2.875 C4.47453125 3.67550781 4.47453125 3.67550781 5.46875 4.4921875 C5.9740625 4.98976563 6.479375 5.48734375 7 6 C7 6.66 7 7.32 7 8 C5.35 8.33 3.7 8.66 2 9 C0.50178941 5.62902617 0 3.79557881 0 0 Z " fill="#3C8065" transform="translate(311,416)"/>
<path d="M0 0 C0.33 0 0.66 0 1 0 C1.17563129 4.4785979 1.22085338 8.02584132 -1 12 C-1.99 12.33 -2.98 12.66 -4 13 C-3.52140759 11.39566191 -3.04210442 9.79153584 -2.5625 8.1875 C-2.29566406 7.29417969 -2.02882813 6.40085938 -1.75390625 5.48046875 C-1.19612127 3.64526945 -0.60655425 1.81966274 0 0 Z " fill="#D2F2E6" transform="translate(112,218)"/>
<path d="M0 0 C5.24099655 0.41105855 8.24039194 1.24039194 12 5 C12 5.66 12 6.32 12 7 C7.69235185 5.43358249 3.93828536 3.31663844 0 1 C0 0.67 0 0.34 0 0 Z " fill="#D3F3E9" transform="translate(175,469)"/>
<path d="M0 0 C2.3125 -0.25 2.3125 -0.25 5 0 C6.97610386 2.04424538 8 3.1176825 8 6 C8.99 6.33 9.98 6.66 11 7 C10.67 7.66 10.34 8.32 10 9 C8.33043913 7.69118353 6.66441696 6.37785174 5 5.0625 C4.071875 4.33160156 3.14375 3.60070312 2.1875 2.84765625 C1.465625 2.23792969 0.74375 1.62820313 0 1 C0 0.67 0 0.34 0 0 Z " fill="#CCF0E2" transform="translate(384,482)"/>
<path d="M0 0 C0.33 0 0.66 0 1 0 C1.04898437 0.78503906 1.09796875 1.57007813 1.1484375 2.37890625 C1.5620036 8.19022303 2.11782148 13.478943 4 19 C3.01 18.67 2.02 18.34 1 18 C-0.50524531 14.45622246 -0.09752721 10.53293864 -0.0625 6.75 C-0.05347656 5.48671875 -0.04445313 4.2234375 -0.03515625 2.921875 C-0.02355469 1.95765625 -0.01195312 0.9934375 0 0 Z " fill="#3B7F61" transform="translate(288,377)"/>
<path d="M0 0 C0.33 0.66 0.66 1.32 1 2 C2.97888961 2.72693904 4.97954558 3.39816251 7 4 C7.33 3.34 7.66 2.68 8 2 C8 3.98 8 5.96 8 8 C3.58110387 6.64978174 1.65654657 4.73884332 -1 1 C-0.67 0.67 -0.34 0.34 0 0 Z " fill="#2D7B59" transform="translate(366,365)"/>
<path d="M0 0 C-1.95585325 1.00484204 -3.91476237 2.00373805 -5.875 3 C-6.96554688 3.556875 -8.05609375 4.11375 -9.1796875 4.6875 C-12 6 -12 6 -14 6 C-14 5.01 -14 4.02 -14 3 C-12.02 2.67 -10.04 2.34 -8 2 C-8 1.34 -8 0.68 -8 0 C-4.90645403 -0.99435406 -3.09720845 -0.87840996 0 0 Z " fill="#DCF7EE" transform="translate(245,189)"/>
<path d="M0 0 C-0.33 0.99 -0.66 1.98 -1 3 C-2.99609375 3.80078125 -2.99609375 3.80078125 -5.4375 4.3125 C-6.24058594 4.49425781 -7.04367187 4.67601562 -7.87109375 4.86328125 C-8.92490234 4.93095703 -8.92490234 4.93095703 -10 5 C-10.66 4.34 -11.32 3.68 -12 3 C-10.37604003 2.49663233 -8.75079459 1.99741024 -7.125 1.5 C-6.22007812 1.2215625 -5.31515625 0.943125 -4.3828125 0.65625 C-2 0 -2 0 0 0 Z " fill="#327F5E" transform="translate(354,490)"/>
<path d="M0 0 C2.77398263 3.46747828 4.95912413 7.06402511 7 11 C6.67 11.66 6.34 12.32 6 13 C5.01 12.34 4.02 11.68 3 11 C3 9.68 3 8.36 3 7 C2.01 6.67 1.02 6.34 0 6 C0 4.02 0 2.04 0 0 Z " fill="#2F7A59" transform="translate(116,400)"/>
<path d="M0 0 C-4.455 3.465 -4.455 3.465 -9 7 C-9.66 6.34 -10.32 5.68 -11 5 C-4.83050847 -1.61016949 -4.83050847 -1.61016949 0 0 Z " fill="#DAF6EC" transform="translate(231,196)"/>
<path d="M0 0 C3.3 0.99 6.6 1.98 10 3 C10 3.66 10 4.32 10 5 C6.37 4.34 2.74 3.68 -1 3 C-0.67 2.01 -0.34 1.02 0 0 Z " fill="#217751" transform="translate(308,184)"/>
<path d="M0 0 C1.0169313 2.65498232 1.13022151 3.69155375 0.00390625 6.359375 C-0.47175781 7.14828125 -0.94742187 7.9371875 -1.4375 8.75 C-2.14712891 9.94882812 -2.14712891 9.94882812 -2.87109375 11.171875 C-3.24363281 11.77515625 -3.61617188 12.3784375 -4 13 C-4.33 13 -4.66 13 -5 13 C-5.40121283 9.48938777 -5.20702695 8.28048812 -3.0625 5.375 C-2.381875 4.59125 -1.70125 3.8075 -1 3 C-0.67 2.01 -0.34 1.02 0 0 Z " fill="#E0FBF1" transform="translate(482,494)"/>
<path d="M0 0 C4.29 1.32 8.58 2.64 13 4 C12.34 4.66 11.68 5.32 11 6 C6.63590392 5.70906026 3.52376535 4.59100393 0 2 C0 1.34 0 0.68 0 0 Z " fill="#2B7655" transform="translate(427,516)"/>
<path d="M0 0 C0.66 0.99 1.32 1.98 2 3 C0.38731308 5.71224618 -1.24901874 8.37352812 -3 11 C-3.66 11 -4.32 11 -5 11 C-3.55049545 7.2089881 -1.84827434 3.6125362 0 0 Z " fill="#2B7656" transform="translate(199,228)"/>
<path d="M0 0 C4.17645661 -0.34803805 5.82586157 0.33781938 9 3 C10.31836295 3.69580267 11.64791086 4.37224433 13 5 C12.34 5.66 11.68 6.32 11 7 C7.37 5.02 3.74 3.04 0 1 C0 0.67 0 0.34 0 0 Z " fill="#2B7858" transform="translate(368,125)"/>
<path d="M0 0 C7.63076923 1.47692308 7.63076923 1.47692308 9.5 4.125 C9.665 4.74375 9.83 5.3625 10 6 C5.56909529 4.79157144 3.01887244 3.48331435 0 0 Z " fill="#D6F4E9" transform="translate(420,511)"/>
<path d="M0 0 C3.94727588 -0.17942163 6.5980513 -0.09350689 10 2 C10 2.99 10 3.98 10 5 C6.08788267 3.84414715 3.1254959 2.64465038 0 0 Z " fill="#E0F9F0" transform="translate(192,479)"/>
<path d="M0 0 C7.48291572 6.15034169 7.48291572 6.15034169 10 10 C8.68 9.67 7.36 9.34 6 9 C6 8.34 6 7.68 6 7 C5.34 7 4.68 7 4 7 C4 6.34 4 5.68 4 5 C3.01 4.67 2.02 4.34 1 4 C0.3125 1.9375 0.3125 1.9375 0 0 Z " fill="#22704D" transform="translate(298,404)"/>
<path d="M0 0 C0.33 0 0.66 0 1 0 C0.85892253 1.45880109 0.71197585 2.91703551 0.5625 4.375 C0.48128906 5.18710937 0.40007812 5.99921875 0.31640625 6.8359375 C0 9 0 9 -1 11 C-1.66 11 -2.32 11 -3 11 C-2.25 3.375 -2.25 3.375 0 0 Z " fill="#20704D" transform="translate(380,349)"/>
<path d="M0 0 C-2.6860286 1.79068573 -4.6626589 2.66055791 -7.6875 3.625 C-8.89986328 4.01558594 -8.89986328 4.01558594 -10.13671875 4.4140625 C-10.75160156 4.60742188 -11.36648438 4.80078125 -12 5 C-12 4.01 -12 3.02 -12 2 C-7.8794254 0.00214565 -4.54805635 -0.17835515 0 0 Z " fill="#3A8163" transform="translate(319,345)"/>
<path d="M0 0 C6 7.4 6 7.4 6 11 C5.01 10.67 4.02 10.34 3 10 C2.6278958 8.67696283 2.29369827 7.34262065 2 6 C1.34 5.67 0.68 5.34 0 5 C0 3.35 0 1.7 0 0 Z " fill="#D7F5E9" transform="translate(434,184)"/>
<path d="M0 0 C0.99 0 1.98 0 3 0 C3 0.66 3 1.32 3 2 C3.66 2 4.32 2 5 2 C5.33 2.99 5.66 3.98 6 5 C6.66 5.33 7.32 5.66 8 6 C7.67 6.99 7.34 7.98 7 9 C5.82737096 7.88121617 4.66204862 6.75476949 3.5 5.625 C2.8503125 4.99851563 2.200625 4.37203125 1.53125 3.7265625 C0 2 0 2 0 0 Z " fill="#267553" transform="translate(414,158)"/>
<path d="M0 0 C5.41538462 -0.36923077 5.41538462 -0.36923077 8.375 1.5 C8.91125 1.995 9.4475 2.49 10 3 C9.67 3.99 9.34 4.98 9 6 C6.03 4.35 3.06 2.7 0 1 C0 0.67 0 0.34 0 0 Z " fill="#337E5D" transform="translate(341,348)"/>
<path d="M0 0 C0 3.64478912 -0.85802506 5.09303401 -3 8 C-5.109375 8.6484375 -5.109375 8.6484375 -7 9 C-6.02180976 7.68677212 -5.0424189 6.37443848 -4.0625 5.0625 C-3.51722656 4.33160156 -2.97195312 3.60070312 -2.41015625 2.84765625 C-1 1 -1 1 0 0 Z " fill="#C8EEE1" transform="translate(150,160)"/>
<path d="M0 0 C-0.39803561 2.88575819 -0.79009069 3.82189513 -3.0625 5.75 C-3.701875 6.1625 -4.34125 6.575 -5 7 C-5.66 6.34 -6.32 5.68 -7 5 C-2.25 0 -2.25 0 0 0 Z " fill="#D6F0E8" transform="translate(158,154)"/>
<path d="M0 0 C-1.9626228 2.04795423 -3.4277307 2.94976638 -6.26953125 3.19921875 C-8.51954383 3.18858877 -10.75385562 3.12958525 -13 3 C-8.48166204 0.66292864 -5.11018582 -0.11355968 0 0 Z " fill="#ECFFFB" transform="translate(327,495)"/>
<path d="M0 0 C3.91211733 1.15585285 6.8745041 2.35534962 10 5 C4.5388601 4.64766839 4.5388601 4.64766839 2 4 C0.5 1.9375 0.5 1.9375 0 0 Z " fill="#2D7C59" transform="translate(196,482)"/>
<path d="M0 0 C2.95749791 3.46741134 5.07848152 6.86873527 7 11 C6.34 11 5.68 11 5 11 C5 10.34 5 9.68 5 9 C4.01 8.67 3.02 8.34 2 8 C2 6.68 2 5.36 2 4 C1.34 4 0.68 4 0 4 C0 2.68 0 1.36 0 0 Z " fill="#CFF2E6" transform="translate(195,375)"/>
<path d="M0 0 C0 0.66 0 1.32 0 2 C-3.41831915 4.5393228 -5.75776898 5.3636198 -10 5 C-3.87096774 0 -3.87096774 0 0 0 Z " fill="#267050" transform="translate(238,193)"/>
<path d="M0 0 C0.33 0.99 0.66 1.98 1 3 C-0.3125 4.9375 -0.3125 4.9375 -2 7 C-2.69580267 8.31836295 -3.37224433 9.64791086 -4 11 C-4.66 11 -5.32 11 -6 11 C-4.54955729 6.89041233 -2.48889248 3.56741255 0 0 Z " fill="#CEEFE3" transform="translate(134,179)"/>
<path d="M0 0 C-2.85306797 2.32472205 -5.54074837 3.7508258 -9 5 C-9 4.01 -9 3.02 -9 2 C-8.01 2 -7.02 2 -6 2 C-6 1.34 -6 0.68 -6 0 C-3 -1 -3 -1 0 0 Z " fill="#327C5C" transform="translate(204,122)"/>
<path d="M0 0 C3.7952131 1.49097658 5.61042731 3.75700849 8 7 C4.21388773 6.45912682 2.44599233 4.88277668 0 2 C0 1.34 0 0.68 0 0 Z " fill="#317C5A" transform="translate(396,493)"/>
<path d="M0 0 C3.53372712 1.96318174 6.24479785 4.04070881 9 7 C5.51375944 6.3543999 2.87501211 5.07639763 0 3 C0 2.01 0 1.02 0 0 Z " fill="#D5F4E8" transform="translate(437,432)"/>
<path d="M0 0 C2.40072955 2.88087546 4.47291037 5.56404834 6 9 C4.125 8.6875 4.125 8.6875 2 8 C-0.1519437 4.77208445 -0.20086443 3.71599191 0 0 Z " fill="#357F5C" transform="translate(126,418)"/>
<path d="M0 0 C0.66 0 1.32 0 2 0 C4.53906064 2.61373889 5.92256852 4.12889581 6.25 7.8125 C6.1675 8.534375 6.085 9.25625 6 10 C3.25722422 6.80009492 1.3697164 3.99500618 0 0 Z " fill="#D4F6E7" transform="translate(122,410)"/>
<path d="M0 0 C0.33 0 0.66 0 1 0 C1 2.64 1 5.28 1 8 C0.34 8 -0.32 8 -1 8 C-1.33 8.99 -1.66 9.98 -2 11 C-3 9 -3 9 -2.44140625 6.8359375 C-2.15136719 6.02382813 -1.86132812 5.21171875 -1.5625 4.375 C-1.27503906 3.55773437 -0.98757813 2.74046875 -0.69140625 1.8984375 C-0.46324219 1.27195312 -0.23507812 0.64546875 0 0 Z " fill="#398060" transform="translate(462,368)"/>
<path d="M0 0 C0.66 0 1.32 0 2 0 C1.25 7.75 1.25 7.75 -1 10 C-1.125 2.25 -1.125 2.25 0 0 Z " fill="#1B6F49" transform="translate(464,362)"/>
<path d="M0 0 C1.48484412 0.39595843 2.9628831 0.81750706 4.4375 1.25 C5.26121094 1.48203125 6.08492188 1.7140625 6.93359375 1.953125 C9 3 9 3 9.78515625 5.109375 C9.85605469 5.73328125 9.92695313 6.3571875 10 7 C8.51719804 6.21516341 7.0388502 5.42190666 5.5625 4.625 C4.73878906 4.18414062 3.91507812 3.74328125 3.06640625 3.2890625 C1 2 1 2 0 0 Z " fill="#D1F1E5" transform="translate(334,194)"/>
<path d="M0 0 C1.98 0.66 3.96 1.32 6 2 C6 2.66 6 3.32 6 4 C6.99 4 7.98 4 9 4 C8.67 5.32 8.34 6.64 8 8 C6.66372225 6.85760183 5.33104612 5.71098945 4 4.5625 C3.2575 3.92441406 2.515 3.28632813 1.75 2.62890625 C1.1725 2.09136719 0.595 1.55382812 0 1 C0 0.67 0 0.34 0 0 Z " fill="#377F5E" transform="translate(402,148)"/>
<path d="M0 0 C3.3 1.98 6.6 3.96 10 6 C7 7 7 7 3.875 5.8125 C1 4 1 4 0 0 Z " fill="#D1F2E7" transform="translate(380,132)"/>
<path d="M0 0 C2.3125 0.8125 2.3125 0.8125 4 2 C1.6226839 4.3773161 0.29714793 4.67028521 -3 5 C-3.66 4.34 -4.32 3.68 -5 3 C-2.75 1.375 -2.75 1.375 0 0 Z " fill="#3A7E61" transform="translate(378,478)"/>
<path d="M0 0 C2.12038635 2.61514317 4.13091744 5.19637616 6 8 C3 8 3 8 1 7 C0.59270772 4.67843403 0.25561323 2.3431213 0 0 Z " fill="#2D7757" transform="translate(132,427)"/>
<path d="M0 0 C3 1 3 1 4.75 3.375 C6 6 6 6 5 9 C2.67527795 6.14693203 1.2491742 3.45925163 0 0 Z " fill="#D4F4E7" transform="translate(117,401)"/>
<path d="M0 0 C2.97 0.495 2.97 0.495 6 1 C6 1.99 6 2.98 6 4 C3.69 3.67 1.38 3.34 -1 3 C-0.67 2.01 -0.34 1.02 0 0 Z " fill="#30815F" transform="translate(332,343)"/>
<path d="M0 0 C3.63 0.33 7.26 0.66 11 1 C11 1.99 11 2.98 11 4 C7.37 3.01 3.74 2.02 0 1 C0 0.67 0 0.34 0 0 Z " fill="#C6EADC" transform="translate(310,184)"/>
<path d="M0 0 C2.50298434 2.93828597 3.46930939 5.17902761 4 9 C3.01 8.67 2.02 8.34 1 8 C-0.35439668 5.29120665 -0.06501451 2.99066732 0 0 Z " fill="#347E5D" transform="translate(111,389)"/>
<path d="M0 0 C0.99 0 1.98 0 3 0 C3.6875 2.3125 3.6875 2.3125 4 5 C2.5625 6.8125 2.5625 6.8125 1 8 C0.67 5.36 0.34 2.72 0 0 Z " fill="#297C57" transform="translate(184,341)"/>
<path d="M0 0 C0.66 0 1.32 0 2 0 C2.33 2.31 2.66 4.62 3 7 C2.01 7.495 2.01 7.495 1 8 C-0.35439668 5.29120665 -0.06501451 2.99066732 0 0 Z " fill="#327B5C" transform="translate(377,253)"/>
<path d="M0 0 C0.33 0 0.66 0 1 0 C1.29296875 6.0546875 1.29296875 6.0546875 1 8 C0.01 8.66 -0.98 9.32 -2 10 C-1.54177532 6.53058454 -1.10868317 3.32604951 0 0 Z " fill="#C5E9DA" transform="translate(107,231)"/>
<path d="M0 0 C2.475 0.495 2.475 0.495 5 1 C5.33 2.98 5.66 4.96 6 7 C1.125 2.25 1.125 2.25 0 0 Z " fill="#CFF0E5" transform="translate(141,438)"/>
<path d="M0 0 C0.33 0 0.66 0 1 0 C1.1875 2.875 1.1875 2.875 1 6 C0.01 6.66 -0.98 7.32 -2 8 C-2 4.23312136 -1.76462683 3.08809695 0 0 Z " fill="#247350" transform="translate(444,412)"/>
<path d="M0 0 C0.33 0 0.66 0 1 0 C0.25 6.75 0.25 6.75 -2 9 C-3 6 -3 6 -1.5625 2.8125 C-1.046875 1.884375 -0.53125 0.95625 0 0 Z " fill="#347F5E" transform="translate(448,404)"/>
<path d="M0 0 C0.66 0 1.32 0 2 0 C1.67 3.3 1.34 6.6 1 10 C0.67 10 0.34 10 0 10 C-0.19412181 8.52168779 -0.38012131 7.04230684 -0.5625 5.5625 C-0.66691406 4.73878906 -0.77132812 3.91507812 -0.87890625 3.06640625 C-0.91886719 2.38449219 -0.95882812 1.70257813 -1 1 C-0.67 0.67 -0.34 0.34 0 0 Z " fill="#277855" transform="translate(96,271)"/>
<path d="M0 0 C0.75 1.75 0.75 1.75 1 4 C-0.9375 6.25 -0.9375 6.25 -3 8 C-3 4.42424104 -1.91159393 2.94704065 0 0 Z " fill="#D4F4E7" transform="translate(127,190)"/>
<path d="M0 0 C3.37462715 0.54723683 5.08235 1.0549 8 3 C7.67 3.99 7.34 4.98 7 6 C5.83054208 5.19152271 4.66449539 4.37810888 3.5 3.5625 C2.8503125 3.11003906 2.200625 2.65757812 1.53125 2.19140625 C1.0259375 1.79824219 0.520625 1.40507812 0 1 C0 0.67 0 0.34 0 0 Z " fill="#2F7959" transform="translate(381,132)"/>
</svg>
